<svg xmlns="http://www.w3.org/2000/svg" width="82.49" height="30.768" viewBox="0 0 82.49 30.768"><line x1="3.446" transform="translate(74.327 19.971)" fill="none" stroke="#8c9baf" stroke-linecap="round" stroke-miterlimit="10" stroke-width="2"/><line x1="2.283" transform="translate(4.327 19.971)" fill="none" stroke="#8c9baf" stroke-linecap="round" stroke-miterlimit="10" stroke-width="2"/><line x1="33.618" transform="translate(23.162 19.971)" fill="none" stroke="#8c9baf" stroke-linecap="round" stroke-miterlimit="10" stroke-width="2"/><path d="M1841.292,674.726" transform="translate(-1763.106 -654.1)" fill="none" stroke="#0786bd" stroke-miterlimit="10" stroke-width="5"/><g transform="translate(0 0)"><g transform="translate(0)"><path d="M1859.191,673.834a5.059,5.059,0,0,1,10.056,0,5.143,5.143,0,0,1,.034.569,5.045,5.045,0,0,1-1.483,3.581,5.059,5.059,0,0,1-8.416-2.086A5.1,5.1,0,0,1,1859.191,673.834Z" transform="translate(-1798.468 -650.936)" fill="none"/><path d="M1982.752,674.081a5.054,5.054,0,0,1,10,0,5.1,5.1,0,0,1-.119,2.063,5.055,5.055,0,0,1-9.766,0A5.094,5.094,0,0,1,1982.752,674.081Z" transform="translate(-1972.975 -651.183)" fill="none"/><path d="M1838.569,641c1.64-.695,9.74-2.357,14.512-3.251a4.53,4.53,0,0,0,1.225-.333l17.156-7.376a3.7,3.7,0,0,1,1.467-.3h18.333a3.7,3.7,0,0,1,1.385.268l11.755,4.725a4.159,4.159,0,0,0,.848.24l8.1,1.383a.026.026,0,0,1,.017.019l-.447,1.059a4.138,4.138,0,0,0,.118,3.482l1.184,2.343,0,3.6a3.718,3.718,0,0,1-3.714,3.714h-3.864a7.122,7.122,0,0,0-14.2,0h-36.786a7.124,7.124,0,0,0-14.171,0H1839.6a3.7,3.7,0,0,1-3.711-3.563l-.026-.652c.016-.148.1-.755.529-2.725A3.718,3.718,0,0,1,1838.569,641Z" transform="translate(-1833.796 -627.679)" fill="none"/><path d="M1831.439,640.262a5.775,5.775,0,0,1,3.39-4.094c2.468-1.046,15.007-3.393,15.007-3.393a2.484,2.484,0,0,0,.72-.188l17.156-7.376a5.777,5.777,0,0,1,2.282-.47h18.333a5.776,5.776,0,0,1,2.154.417l11.755,4.724a2.062,2.062,0,0,0,.426.121l8.1,1.383a2.083,2.083,0,0,1,1.568,2.863l-.444,1.052a2.082,2.082,0,0,0,.059,1.749l1.183,2.343a2.085,2.085,0,0,1,.224.939v3.593a5.777,5.777,0,0,1-5.777,5.777h-4a7.121,7.121,0,0,1-13.928,0h-37.005a7.125,7.125,0,0,1-14,0h-1.973a5.777,5.777,0,0,1-5.773-5.543l-.03-.732A26.681,26.681,0,0,1,1831.439,640.262Zm61.59,11.527a5.062,5.062,0,0,0,8.644-3.581,5.084,5.084,0,0,0-.034-.569,5.059,5.059,0,0,0-10.056,0,5.1,5.1,0,0,0,.191,2.063A5.029,5.029,0,0,0,1893.03,651.789Zm-50.971.174a5.055,5.055,0,0,0,8.463-2.26,5.1,5.1,0,0,0,.118-2.063,5.054,5.054,0,0,0-10,0,5.092,5.092,0,0,0,.118,2.063A5.027,5.027,0,0,0,1842.058,651.963Zm-9.106-7.887a3.7,3.7,0,0,0,3.711,3.563h1.889a7.124,7.124,0,0,1,14.171,0h36.786a7.122,7.122,0,0,1,14.2,0h3.864a3.718,3.718,0,0,0,3.714-3.714l0-3.6-1.184-2.344a4.138,4.138,0,0,1-.118-3.482l.447-1.059a.026.026,0,0,0-.017-.019l-8.1-1.383a4.151,4.151,0,0,1-.848-.24l-11.755-4.725a3.7,3.7,0,0,0-1.385-.268h-18.333a3.7,3.7,0,0,0-1.467.3l-17.156,7.376a4.535,4.535,0,0,1-1.225.333c-4.772.895-12.872,2.556-14.512,3.251a3.718,3.718,0,0,0-2.179,2.632c-.428,1.97-.513,2.577-.529,2.725Z" transform="translate(-1830.861 -624.742)" fill="#8c9baf"/></g><g transform="translate(-1883.575 -630.41)" fill="none" stroke-miterlimit="10"><path d="M1932.686,635.575l-2.745,5.114a1.238,1.238,0,0,1-1.091.652h-16.06a1.238,1.238,0,0,1-.5-2.369l9.088-4.051a5.78,5.78,0,0,1,2.332-.5l8.233-.028A.825.825,0,0,1,1932.686,635.575Z" stroke="none"/><path d="M 1929.973388671875 636.3988647460938 L 1923.713012695312 636.4205322265625 C 1923.18408203125 636.4224243164062 1922.671020507812 636.5325927734375 1922.188232421875 636.7477416992188 L 1916.37158203125 639.3406982421875 L 1928.39453125 639.3406982421875 L 1929.973388671875 636.3988647460938 M 1931.942016601562 634.39208984375 C 1932.549560546875 634.39208984375 1932.949462890625 635.0267333984375 1932.685668945312 635.57470703125 L 1929.941040039062 640.6883544921875 C 1929.725219726562 641.08984375 1929.306396484375 641.3406982421875 1928.850341796875 641.3406982421875 L 1912.790283203125 641.3406982421875 C 1911.453979492188 641.3406982421875 1911.065673828125 639.5159912109375 1912.286254882812 638.97216796875 L 1921.373901367188 634.9210205078125 C 1922.108032226562 634.5938720703125 1922.901977539062 634.4234619140625 1923.705688476562 634.4205322265625 L 1931.939086914062 634.39208984375 C 1931.940063476562 634.39208984375 1931.941040039062 634.39208984375 1931.942016601562 634.39208984375 Z" stroke="none" fill="#8c9baf"/></g><g transform="translate(-1819.106 -630.413)" fill="none" stroke-miterlimit="10"><path d="M1868.906,641.307a.825.825,0,0,1-.735-1.2l2.537-4.968a1.239,1.239,0,0,1,1.134-.741h3.129a5.78,5.78,0,0,1,2.777.711l7.989,3.415a.825.825,0,0,1,.366,1.212l-.787,1.2a.825.825,0,0,1-.69.373Z" stroke="none"/><path d="M 1882.48193359375 639.3065795898438 L 1876.9619140625 636.9470825195312 L 1876.872436523438 636.9088134765625 L 1876.787109375 636.862060546875 C 1876.231811523438 636.557861328125 1875.603881835938 636.3970336914062 1874.97119140625 636.3970336914062 L 1872.310546875 636.3970336914062 L 1870.82470703125 639.3065795898438 L 1882.48193359375 639.3065795898438 M 1884.625366210938 641.3065795898438 L 1868.906005859375 641.3065795898438 C 1868.289428710938 641.3065795898438 1867.890380859375 640.6549682617188 1868.1708984375 640.1056518554688 L 1870.7080078125 635.1376953125 C 1870.905639648438 634.6879272460938 1871.350463867188 634.3970336914062 1871.842163085938 634.3970336914062 L 1874.97119140625 634.3970336914062 C 1875.941772460938 634.3970336914062 1876.896850585938 634.6417236328125 1877.748046875 635.1080322265625 L 1885.736694335938 638.5227661132812 C 1886.209106445312 638.7249755859375 1886.384033203125 639.3047485351562 1886.102294921875 639.7343139648438 L 1885.315307617188 640.9338989257812 C 1885.1630859375 641.166259765625 1884.903442382812 641.3065795898438 1884.625366210938 641.3065795898438 Z" stroke="none" fill="#8c9baf"/></g></g></svg>