<svg xmlns="http://www.w3.org/2000/svg" width="400" height="400" viewBox="0 0 400 400"><g transform="translate(-852 -290)"><g transform="translate(877 315)" fill="none" stroke="#0786bd" stroke-width="25" opacity="0.1"><rect width="350" height="350" stroke="none"/><rect x="-12.5" y="-12.5" width="375" height="375" fill="none"/></g><g transform="translate(877 315)" fill="none" stroke="#fff" stroke-width="1"><rect width="350" height="350" stroke="none"/><rect x="0.5" y="0.5" width="349" height="349" fill="none"/></g><path d="M-2417.643-18556.98v20h20" transform="translate(-17659.623 2732.662) rotate(90)" fill="none" stroke="#fff" stroke-width="5"/><path d="M-2417.643-18556.98v20h20" transform="translate(19763.338 -1753.623) rotate(-90)" fill="none" stroke="#fff" stroke-width="5"/><path d="M-2417.643-18556.98v20h20" transform="translate(-1191.285 -18221.961) rotate(180)" fill="none" stroke="#fff" stroke-width="5"/><path d="M-2417.643-18556.98v20h20" transform="translate(3295 19201)" fill="none" stroke="#fff" stroke-width="5"/><path d="M-2417.643-18556.98v25" transform="translate(-17492.48 2732.662) rotate(90)" fill="none" stroke="#fff" stroke-width="5"/><path d="M-2417.643-18556.98v25" transform="translate(19596.48 -1753.623) rotate(-90)" fill="none" stroke="#fff" stroke-width="5"/><path d="M-2417.643-18556.98v25" transform="translate(-1191.143 -18054.48) rotate(180)" fill="none" stroke="#fff" stroke-width="5"/><path d="M-2417.643-18556.98v25" transform="translate(3295.143 19034.48)" fill="none" stroke="#fff" stroke-width="5"/></g></svg>