<svg xmlns="http://www.w3.org/2000/svg" width="83.187" height="57.726" viewBox="0 0 83.187 57.726"><path d="M127.133,196.73a.946.946,0,1,1,0-1.893H185.74a.946.946,0,1,1,0,1.893Zm0-22a.947.947,0,1,1,0-1.893h44.939a.947.947,0,0,1,0,1.893ZM175.665,157.7a.946.946,0,1,0,0-1.893h-34.8a.946.946,0,0,0,0,1.893Zm-57.1,4.284v-6.631a3.794,3.794,0,0,1,3.786-3.785h71.829a3.776,3.776,0,0,1,2.675,1.107l0,0a3.78,3.78,0,0,1,1.108,2.675v6.631Zm79.4,1.893h-79.4v37.845a3.77,3.77,0,0,0,1.108,2.675l0,0a3.768,3.768,0,0,0,2.675,1.108h71.829a3.795,3.795,0,0,0,3.786-3.786V163.877Zm-75.615-14.2a5.689,5.689,0,0,0-5.679,5.679v46.368a5.662,5.662,0,0,0,1.657,4l.01.01,0,0,0,0a5.663,5.663,0,0,0,4.009,1.667h71.829a5.689,5.689,0,0,0,5.679-5.679V155.354a5.656,5.656,0,0,0-1.666-4.009l0,0a5.661,5.661,0,0,0-4.01-1.666Zm4.781,39.138a.946.946,0,1,1,0-1.893H191.7a.946.946,0,0,1,0,1.893Z" transform="translate(-116.673 -149.675)" fill="#8c9baf" fill-rule="evenodd"/></svg>