<svg xmlns="http://www.w3.org/2000/svg" width="83.187" height="57.726" viewBox="0 0 83.187 57.726"><path d="M157.133,196.73a.946.946,0,1,1,0-1.893H185.74a.946.946,0,1,1,0,1.893Zm0-22a.947.947,0,1,1,0-1.893h14.939a.947.947,0,0,1,0,1.893ZM175.665,157.7a.946.946,0,1,0,0-1.893h-34.8a.946.946,0,0,0,0,1.893Zm-57.1,4.284v-6.631a3.794,3.794,0,0,1,3.786-3.785h71.829a3.776,3.776,0,0,1,2.675,1.107l0,0a3.78,3.78,0,0,1,1.108,2.675v6.631Zm79.4,1.893h-79.4v37.845a3.77,3.77,0,0,0,1.108,2.675l0,0a3.768,3.768,0,0,0,2.675,1.108h71.829a3.795,3.795,0,0,0,3.786-3.786V163.877Zm-75.615-14.2a5.689,5.689,0,0,0-5.679,5.679v46.368a5.662,5.662,0,0,0,1.657,4l.01.01,0,0,0,0a5.663,5.663,0,0,0,4.009,1.667h71.829a5.689,5.689,0,0,0,5.679-5.679V155.354a5.656,5.656,0,0,0-1.666-4.009l0,0a5.661,5.661,0,0,0-4.01-1.666Zm13.554,33.489-.3,0a6.222,6.222,0,1,1,.584,0l-.288,0Zm4.215.721a12.637,12.637,0,0,1,4.708,2.975l.053.057a12.58,12.58,0,0,1,3.642,8.866.946.946,0,0,1-.946.946H124.235a.947.947,0,0,1-.947-.946,12.578,12.578,0,0,1,3.7-8.919l0,0a12.631,12.631,0,0,1,4.7-2.972,8.116,8.116,0,1,1,8.436,0Zm3.369,4.314.049.045a10.7,10.7,0,0,1,3.051,6.593h-21.37a10.719,10.719,0,0,1,10.374-9.774q.152.005.306.005c.1,0,.208,0,.311-.006a10.693,10.693,0,0,1,7.278,3.137Zm13.642.614a.946.946,0,1,1,0-1.893H191.7a.946.946,0,0,1,0,1.893Z" transform="translate(-116.673 -149.675)" fill="#8c9baf" fill-rule="evenodd"/></svg>