<svg xmlns="http://www.w3.org/2000/svg" width="57.881" height="58" viewBox="0 0 57.881 58"><g transform="translate(-738.829 -242.74)"><path d="M744.734,300.74a5.926,5.926,0,0,1-5.9-5.921V248.66a5.926,5.926,0,0,1,5.906-5.92H766.25a.93.93,0,0,1-.023,1.858H744.734a4.067,4.067,0,0,0-4.053,4.062V294.82a4.068,4.068,0,0,0,4.051,4.063h36.095a4.069,4.069,0,0,0,4.054-4.062V278.05a.917.917,0,0,1,.925-.884.932.932,0,0,1,.927.907v16.749a5.927,5.927,0,0,1-5.907,5.918H744.734Z" transform="translate(0 0)" fill="#8c9baf"/><path d="M8.54-6.86A3.041,3.041,0,0,1,8.218-5.4a2.645,2.645,0,0,1-.868.959,3.831,3.831,0,0,1-1.26.532,6.458,6.458,0,0,1-1.484.168H3.416V0H1.022V-9.912h3.64a6.832,6.832,0,0,1,1.519.161,3.582,3.582,0,0,1,1.232.518,2.51,2.51,0,0,1,.826.938A3.1,3.1,0,0,1,8.54-6.86Zm-2.394.014a1.067,1.067,0,0,0-.14-.574.975.975,0,0,0-.378-.35,1.622,1.622,0,0,0-.539-.168,4.5,4.5,0,0,0-.623-.042H3.416v2.338H4.424A3.6,3.6,0,0,0,5.068-5.7a1.729,1.729,0,0,0,.553-.2,1.05,1.05,0,0,0,.385-.371A1.1,1.1,0,0,0,6.146-6.846Zm13.09,1.862a4.881,4.881,0,0,1-.483,2.247,4.53,4.53,0,0,1-1.274,1.554,5.312,5.312,0,0,1-1.785.9A7.233,7.233,0,0,1,13.678,0h-3.7V-9.912h3.584a8.858,8.858,0,0,1,2.072.245,5.2,5.2,0,0,1,1.82.812,4.156,4.156,0,0,1,1.288,1.519A5.1,5.1,0,0,1,19.236-4.984Zm-2.492,0a3.139,3.139,0,0,0-.273-1.393,2.345,2.345,0,0,0-.728-.882,2.912,2.912,0,0,0-1.036-.469,5.092,5.092,0,0,0-1.2-.14H12.32v5.8h1.134a5.147,5.147,0,0,0,1.239-.147,2.929,2.929,0,0,0,1.05-.483,2.393,2.393,0,0,0,.728-.9A3.149,3.149,0,0,0,16.744-4.984Zm6.44-2.884v2.044H27.02V-3.85H23.184V0H20.818V-9.912h6.524v2.044Z" transform="translate(748.829 291.74)" fill="#8c9baf"/><path d="M779.02,273.518A15.338,15.338,0,1,1,794.36,258.18v0A15.356,15.356,0,0,1,779.02,273.518Z" transform="translate(2.351 0.012)" fill="#0dbea9"/><path d="M775.852,264.213a1.89,1.89,0,0,1-1.339-.555l-5.049-5.049a1.894,1.894,0,0,1,2.679-2.674l3.618,3.618,7.5-8.574a1.893,1.893,0,1,1,2.85,2.492h0l-8.837,10.1a1.9,1.9,0,0,1-1.363.646Z" transform="translate(2.996 0.928)" fill="#fff"/></g></svg>